<svg xmlns="http://www.w3.org/2000/svg" xmlns:xlink="http://www.w3.org/1999/xlink" version="1.1" id="svg-3222" x="0px" y="0px" viewBox="0 0 511.008 511.008" style="enable-background:new 0 0 511.008 511.008;" xml:space="preserve" class="u-svg-content"><g><path d="M319.391,268.684c-16.93-7.166-32.628-4.23-46.479-1.639c-3.431,0.642-6.75,1.256-9.906,1.679l-0.001-13.222   c0-2.339,0.829-4.487,2.334-6.047c1.548-1.605,3.68-2.453,6.165-2.453c4.142,0,7.5-3.358,7.5-7.5c0-4.142-3.358-7.5-7.5-7.5   c-6.558,0-12.582,2.5-16.96,7.039c-4.217,4.372-6.539,10.218-6.539,16.462l0.001,13.11c-2.901-0.416-5.936-0.981-9.061-1.565   c-13.851-2.589-29.551-5.524-46.48,1.645c-15.413,6.526-26.436,19.693-31.038,37.074c-6.43,24.285,0.713,53.151,19.107,77.218   c27.108,35.468,54.531,40.019,75.395,40.019c0.002,0,0.006,0,0.008,0c20.865-0.001,48.291-4.552,75.398-40.028   c18.391-24.068,25.53-52.935,19.097-77.219C345.829,288.374,334.805,275.208,319.391,268.684z M319.417,373.867   c-26.081,34.133-51.341,34.135-63.48,34.135c-12.144-0.033-37.399,0.002-63.484-34.127c-15.599-20.408-21.776-44.435-16.524-64.27   c3.389-12.798,11.338-22.423,22.386-27.101c12.768-5.406,25.532-3.02,37.875-0.713c4.044,0.756,7.954,1.481,11.818,1.951   l0.001,9.36c-4.378-1.054-9.034-2.767-13.788-4.598c-3.864-1.489-8.206,0.438-9.694,4.304c-1.488,3.865,0.438,8.206,4.304,9.694   c9.13,3.516,18.074,6.671,27.101,6.671c9.027,0,17.97-3.157,27.101-6.674c3.865-1.489,5.792-5.829,4.303-9.694   c-1.489-3.866-5.83-5.791-9.695-4.303c-5.062,1.949-10.011,3.764-14.633,4.793l-0.001-9.452c4.139-0.462,8.325-1.242,12.663-2.054   c12.344-2.309,25.107-4.697,37.874,0.708c11.048,4.677,19,14.3,22.39,27.098C341.187,329.43,335.013,353.457,319.417,373.867z"></path><path d="M422.549,188.929c-11.88-32.663-49.761-42.101-77.421-48.993c-12.007-2.991-24.422-6.085-28.501-9.909   c-17.623-16.519-15.963-43.606-8.049-79.195c1.023-4.601-0.083-9.35-3.035-13.03c-2.958-3.688-7.365-5.802-12.092-5.802l-4.355,0   l5.669-22.681c0.56-2.241,0.056-4.614-1.365-6.435S289.799,0,287.489,0l-64,0.004c-2.31,0-4.49,1.064-5.911,2.885   c-1.421,1.821-1.925,4.194-1.364,6.435l5.672,22.681l-4.355,0c-4.727,0-9.133,2.115-12.091,5.803   c-2.951,3.68-4.057,8.43-3.033,13.031c0.11,0.495,0.214,0.982,0.322,1.474c-2.995-1.564-6.26-2.75-9.762-3.495   c-16.931-3.602-33.114,4.238-40.265,19.509c-10.624,22.687-1.004,51.561,14.435,66.37c1.466,1.406,2.974,2.667,4.512,3.796   c-1.914,0.489-3.851,0.973-5.781,1.454c-27.659,6.895-65.539,16.337-77.415,49.002c-8.534,23.475-8.783,64.886-0.7,116.606   c8.886,56.862,27.136,122.652,52.777,190.26c3.447,9.088,12.298,15.193,22.025,15.192l185.933-0.012   c9.728,0,18.578-6.107,22.023-15.195c25.632-67.611,43.874-133.404,52.753-190.267   C431.341,253.814,431.087,212.402,422.549,188.929z M233.096,15.003L277.884,15l-4.249,17l-36.288,0.002L233.096,15.003z    M166.285,74.688c4.769-10.183,15.268-12.962,23.56-11.199c8.59,1.827,17.869,9.133,18.15,24.155   c0.002,0.101,0.015,0.199,0.021,0.299c0.718,17.263-2.628,31.175-12.843,41.292c-7.211,3.092-14.107-1.962-17.655-5.365   C162.915,109.863,160.317,87.435,166.285,74.688z M408.444,303.22c-8.722,55.853-26.689,120.608-51.959,187.264   c-1.25,3.297-4.464,5.512-7.998,5.512l-185.933,0.012c-3.534,0-6.748-2.215-7.999-5.512   c-25.278-66.652-43.253-131.405-51.982-187.257c-7.587-48.547-7.595-88.336-0.022-109.165   c9.149-25.165,41.196-33.154,66.946-39.573c15.443-3.85,27.692-6.915,34.695-13.147c0.068-0.055,0.131-0.114,0.197-0.17   c0.078-0.071,0.164-0.136,0.24-0.208c0.03-0.028,0.057-0.058,0.087-0.086c0.041-0.04,0.081-0.079,0.121-0.119   c11.234-10.639,17.174-24.733,18.147-43.082c0.884-16.68-2.504-34.691-5.935-50.109c-0.015-0.069-0.047-0.214,0.094-0.389   c0.15-0.188,0.318-0.188,0.39-0.188l13.935-0.001c0.007,0,0.013,0.002,0.019,0.002c0.009,0,0.018-0.002,0.027-0.002L293.453,47   c0.071,0,0.239,0,0.39,0.188c0.141,0.176,0.109,0.32,0.093,0.389c-7.812,35.131-11.712,70.761,12.433,93.394   c6.926,6.493,19.374,9.594,35.134,13.521c25.75,6.416,57.798,14.401,66.951,39.565C416.028,214.884,416.025,254.673,408.444,303.22   z"></path><path d="M389.366,223.998c-4.14,0.118-7.401,3.57-7.283,7.711c0.457,16.018-0.675,44.009-8.662,86.392   c-0.767,4.071,1.911,7.992,5.981,8.759c0.469,0.088,0.937,0.131,1.397,0.131c3.536,0,6.684-2.511,7.362-6.112   c8.234-43.697,9.394-72.842,8.916-89.597C396.959,227.141,393.525,223.892,389.366,223.998z"></path><path d="M378.38,204.994c1.108,3.047,3.984,4.938,7.049,4.938c0.851,0,1.717-0.146,2.563-0.454c3.893-1.416,5.9-5.719,4.485-9.612   c-3.311-9.101-13.026-16.105-30.577-22.042c-3.923-1.328-8.18,0.778-9.508,4.701c-1.327,3.924,0.777,8.18,4.701,9.508   C373.536,197.595,377.488,202.541,378.38,204.994z"></path><path d="M146.215,357.727c-0.985-4.023-5.044-6.488-9.068-5.502c-4.023,0.985-6.486,5.045-5.502,9.068   c7.479,30.556,17.167,62.789,28.793,95.804c1.086,3.083,3.981,5.011,7.074,5.011c0.827,0,1.667-0.138,2.491-0.428   c3.907-1.376,5.959-5.659,4.583-9.565C163.122,419.563,153.577,387.806,146.215,357.727z"></path></g><g></g><g></g><g></g><g></g><g></g><g></g><g></g><g></g><g></g><g></g><g></g><g></g><g></g><g></g><g></g></svg>